<?xml version="1.0" standalone="no"?>
<!DOCTYPE svg PUBLIC "-//W3C//DTD SVG 20010904//EN"
 "http://www.w3.org/TR/2001/REC-SVG-20010904/DTD/svg10.dtd">
<svg version="1.0" xmlns="http://www.w3.org/2000/svg"
 width="998.445455pt" height="998.633920pt" viewBox="0 0 998.445455 998.633920"
 preserveAspectRatio="xMidYMid meet">
<metadata>
Created by potrace 1.12, written by Peter Selinger 2001-2015
</metadata>
<g transform="translate(-0.601362,999.372616) scale(0.100000,-0.100000)"
fill="#945395" stroke="none">
<path d="M4800 9989 c-1529 -54 -2962 -828 -3864 -2088 -771 -1078 -1081
-2419 -861 -3731 352 -2093 2002 -3743 4095 -4095 539 -90 1121 -90 1660 0
2030 341 3658 1914 4064 3928 68 337 97 633 96 1001 0 334 -14 517 -66 828
-253 1530 -1225 2867 -2614 3596 -640 336 -1392 538 -2075 558 -99 2 -193 6
-210 7 -16 2 -118 0 -225 -4z m650 -1704 c630 -87 1187 -324 1680 -713 117
-93 432 -407 524 -522 476 -600 738 -1333 740 -2070 1 -679 -216 -1348 -624
-1925 -204 -287 -493 -578 -774 -779 -537 -383 -1136 -595 -1793 -635 -541
-32 -1200 123 -1708 401 -529 291 -946 684 -1267 1196 -325 516 -502 1126
-503 1732 0 372 54 693 180 1060 354 1031 1169 1816 2221 2138 210 65 466 114
704 136 100 9 510 -3 620 -19z"/>
<path d="M5565 7433 c-184 -17 -441 -76 -613 -140 -133 -49 -340 -149 -442
-213 -378 -236 -713 -596 -899 -968 -195 -389 -275 -732 -274 -1182 0 -369 50
-639 174 -952 188 -473 514 -869 954 -1161 101 -67 255 -146 400 -207 492
-204 1099 -243 1642 -105 414 106 811 333 1119 640 334 333 572 768 668 1221
73 349 75 764 5 1114 -91 454 -334 905 -669 1240 -391 392 -893 636 -1451 705
-114 14 -496 19 -614 8z m-480 -2068 c151 -42 294 -198 327 -358 51 -241 -239
-536 -479 -488 -238 47 -424 291 -377 494 41 175 183 318 360 361 62 15 86 14
169 -9z m1820 0 c151 -42 294 -198 327 -358 51 -241 -239 -536 -479 -488 -238
47 -424 291 -377 494 41 175 183 318 360 361 62 15 86 14 169 -9z"/>
</g>
</svg>
